<?xml version="1.0" standalone="no"?>
<!DOCTYPE svg PUBLIC "-//W3C//DTD SVG 20010904//EN"
 "http://www.w3.org/TR/2001/REC-SVG-20010904/DTD/svg10.dtd">
<svg version="1.0" xmlns="http://www.w3.org/2000/svg"
 width="400.000000pt" height="400.000000pt" viewBox="0 0 400.000000 400.000000"
 preserveAspectRatio="xMidYMid meet">

<g transform="translate(0.000000,400.000000) scale(0.100000,-0.100000)"
fill="#000000" stroke="none">
<path d="M2270 1040 l0 -660 -380 0 -380 0 0 265 0 265 -125 0 -125 0 0 -265
0 -265 125 0 125 0 0 -125 0 -125 380 0 380 0 0 125 0 125 125 0 125 0 0 660
0 660 -125 0 -125 0 0 -660z"/>
<path d="M3020 1565 l0 -135 -125 0 -125 0 0 -260 0 -260 125 0 125 0 0 -130
0 -130 255 0 255 0 0 -135 0 -135 -380 0 -380 0 0 -125 0 -125 380 0 380 0 0
125 0 125 125 0 125 0 0 265 0 265 -380 0 -380 0 0 260 0 260 380 0 380 0 0
135 0 135 -380 0 -380 0 0 -135z"/>
</g>
</svg>
