<svg xmlns="http://www.w3.org/2000/svg" width="400" height="400" viewBox="0 0 400 400" version="1.1"><path d="M 227 296 L 227 362 189 362 L 151 362 151 335.500 L 151 309 138.500 309 L 126 309 126 335.500 L 126 362 138.500 362 L 151 362 151 374.500 L 151 387 189 387 L 227 387 227 374.500 L 227 362 239.500 362 L 252 362 252 296 L 252 230 239.500 230 L 227 230 227 296 M 302 243.500 L 302 257 289.500 257 L 277 257 277 283 L 277 309 289.500 309 L 302 309 302 322 L 302 335 327.500 335 L 353 335 353 348.500 L 353 362 315 362 L 277 362 277 374.500 L 277 387 315 387 L 353 387 353 374.500 L 353 362 365.500 362 L 378 362 378 335.500 L 378 309 340 309 L 302 309 302 283 L 302 257 340 257 L 378 257 378 243.500 L 378 230 340 230 L 302 230 302 243.500" stroke="none" fill="#060404" fill-rule="evenodd"/><path d="M -0 200.002 L -0 400.005 200.250 399.752 L 400.500 399.500 400.752 199.750 L 401.005 0 200.502 0 L 0 0 -0 200.002 M 0.490 200.500 C 0.490 310.500, 0.607 355.352, 0.750 300.170 C 0.893 244.989, 0.893 154.989, 0.750 100.170 C 0.607 45.352, 0.490 90.500, 0.490 200.500 M 227 296 L 227 362 189 362 L 151 362 151 335.500 L 151 309 138.500 309 L 126 309 126 335.500 L 126 362 138.500 362 L 151 362 151 374.500 L 151 387 189 387 L 227 387 227 374.500 L 227 362 239.500 362 L 252 362 252 296 L 252 230 239.500 230 L 227 230 227 296 M 302 243.500 L 302 257 289.500 257 L 277 257 277 283 L 277 309 289.500 309 L 302 309 302 322 L 302 335 327.500 335 L 353 335 353 348.500 L 353 362 315 362 L 277 362 277 374.500 L 277 387 315 387 L 353 387 353 374.500 L 353 362 365.500 362 L 378 362 378 335.500 L 378 309 340 309 L 302 309 302 283 L 302 257 340 257 L 378 257 378 243.500 L 378 230 340 230 L 302 230 302 243.500" stroke="none" fill="#f4dc1c" fill-rule="evenodd"/></svg>