<svg xmlns="http://www.w3.org/2000/svg" viewBox="0 0 400 1000" width="400" height="1000" preserveAspectRatio="none"><defs>
<filter id="wash" x="-10%" y="-10%" width="120%" height="120%">
  <feTurbulence type="fractalNoise" baseFrequency="0.045" numOctaves="3" seed="3" result="n"/>
  <feDisplacementMap in="SourceGraphic" in2="n" scale="7" xChannelSelector="R" yChannelSelector="G" result="d"/>
  <feGaussianBlur in="d" stdDeviation="0.9" result="b"/>
  <feMorphology in="b" operator="erode" radius="1.6" result="er"/>
  <feComposite in="b" in2="er" operator="out" result="edge"/>
  <feMerge result="m"><feMergeNode in="b"/><feMergeNode in="edge"/></feMerge>
  <feTurbulence type="fractalNoise" baseFrequency="0.8" numOctaves="2" seed="9" result="g"/>
  <feComposite in="m" in2="g" operator="arithmetic" k1="0.7" k2="0.65" k3="0" k4="0"/>
</filter>
<filter id="brush" x="-10%" y="-10%" width="120%" height="120%">
  <feTurbulence type="fractalNoise" baseFrequency="0.09" numOctaves="2" seed="5" result="n"/>
  <feDisplacementMap in="SourceGraphic" in2="n" scale="2.6" xChannelSelector="R" yChannelSelector="G" result="d"/>
  <feGaussianBlur in="d" stdDeviation="0.35"/>
</filter>
<clipPath id="panel"><rect width="400" height="1000"/></clipPath>
<linearGradient id="skyGrad" x1="0" y1="0" x2="0" y2="1">
  <stop offset="0" stop-color="#1a45a8" stop-opacity="0.42"/>
  <stop offset="0.55" stop-color="#1a45a8" stop-opacity="0.08"/>
  <stop offset="1" stop-color="#1a45a8" stop-opacity="0"/>
</linearGradient><clipPath id="win"><path d="M44 944V200C58 200 62 182 78 178Q200 100 322 178C338 182 342 200 356 200V944Z"/></clipPath><clipPath id="waterClip"><rect x="50" y="560" width="300" height="381"/></clipPath></defs><g clip-path="url(#panel)"><g clip-path="url(#win)"><g filter="url(#wash)" fill="#1a45a8">
  <path d="M104 726Q176 752 288 720L304 700L274 710L116 714Z" fill-opacity="0.85"/>
  <path d="M152 602Q196 594 240 602Q250 650 242 704Q196 710 150 704Q158 650 152 602Z" fill="#f4f4ef"/>
  <path d="M152 602Q176 598 188 600Q192 650 186 706Q166 706 150 704Q158 650 152 602Z" fill-opacity="0.3"/>
  <ellipse cx="134" cy="708" rx="8" ry="7" fill-opacity="0.7"/><ellipse cx="150" cy="708" rx="8" ry="7" fill-opacity="0.7"/><ellipse cx="244" cy="708" rx="8" ry="7" fill-opacity="0.7"/>
</g>
<g filter="url(#brush)" stroke="#15296a" fill="none" stroke-linecap="round">
  <path d="M196 712V584" stroke-width="2.4"/>
  <path d="M146 600H246" stroke-width="1.8"/>
  <path d="M152 602Q196 594 240 602Q250 650 242 704M152 602Q158 650 150 704" stroke-width="1.3"/>
  <path d="M290 708L346 744" stroke-width="2.2"/>
</g><g filter="url(#wash)" stroke="#1a45a8" stroke-linecap="round" fill="none"><path d="M117.8 740Q195.4 740.1 273.1 740" stroke-width="2.1" stroke-opacity="0.3"/><path d="M145.8 745Q190 745.5 234.1 745" stroke-width="2.6" stroke-opacity="0.4"/><path d="M123.4 750Q196 749.7 268.6 750" stroke-width="2.4" stroke-opacity="0.5"/><path d="M132.6 755Q203.4 754.1 274.2 755" stroke-width="2.2" stroke-opacity="0.5"/><path d="M125.4 760Q180.7 759.4 236 760" stroke-width="3.5" stroke-opacity="0.5"/><path d="M135.2 765Q189.5 764 243.8 765" stroke-width="3.5" stroke-opacity="0.5"/><path d="M152.2 770Q212.8 770.3 273.3 770" stroke-width="3.4" stroke-opacity="0.4"/><path d="M153 775Q211.5 775.3 270.1 775" stroke-width="2.8" stroke-opacity="0.5"/><path d="M118.5 780Q194.2 779.4 270 780" stroke-width="3.5" stroke-opacity="0.5"/><path d="M144 785Q208.9 784.3 273.8 785" stroke-width="3.7" stroke-opacity="0.5"/><path d="M116.2 790Q174.7 790.3 233.2 790" stroke-width="3" stroke-opacity="0.5"/><path d="M143.3 795Q187.9 794.8 232.4 795" stroke-width="3.6" stroke-opacity="0.3"/><path d="M146 800Q207.8 801.2 269.6 800" stroke-width="3.4" stroke-opacity="0.3"/><path d="M147.1 805Q186.9 803.9 226.8 805" stroke-width="2.1" stroke-opacity="0.5"/></g></g></g></svg>