<svg xmlns="http://www.w3.org/2000/svg" viewBox="0 0 400 1000" width="400" height="1000" preserveAspectRatio="none"><defs>
<filter id="wash" x="-10%" y="-10%" width="120%" height="120%">
  <feTurbulence type="fractalNoise" baseFrequency="0.045" numOctaves="3" seed="3" result="n"/>
  <feDisplacementMap in="SourceGraphic" in2="n" scale="7" xChannelSelector="R" yChannelSelector="G" result="d"/>
  <feGaussianBlur in="d" stdDeviation="0.9" result="b"/>
  <feMorphology in="b" operator="erode" radius="1.6" result="er"/>
  <feComposite in="b" in2="er" operator="out" result="edge"/>
  <feMerge result="m"><feMergeNode in="b"/><feMergeNode in="edge"/></feMerge>
  <feTurbulence type="fractalNoise" baseFrequency="0.8" numOctaves="2" seed="9" result="g"/>
  <feComposite in="m" in2="g" operator="arithmetic" k1="0.7" k2="0.65" k3="0" k4="0"/>
</filter>
<filter id="brush" x="-10%" y="-10%" width="120%" height="120%">
  <feTurbulence type="fractalNoise" baseFrequency="0.09" numOctaves="2" seed="5" result="n"/>
  <feDisplacementMap in="SourceGraphic" in2="n" scale="2.6" xChannelSelector="R" yChannelSelector="G" result="d"/>
  <feGaussianBlur in="d" stdDeviation="0.35"/>
</filter>
<clipPath id="panel"><rect width="400" height="1000"/></clipPath>
<linearGradient id="skyGrad" x1="0" y1="0" x2="0" y2="1">
  <stop offset="0" stop-color="#1a45a8" stop-opacity="0.42"/>
  <stop offset="0.55" stop-color="#1a45a8" stop-opacity="0.08"/>
  <stop offset="1" stop-color="#1a45a8" stop-opacity="0"/>
</linearGradient><clipPath id="win"><path d="M44 944V200C58 200 62 182 78 178Q200 100 322 178C338 182 342 200 356 200V944Z"/></clipPath><clipPath id="waterClip"><rect x="50" y="560" width="300" height="381"/></clipPath></defs><g clip-path="url(#panel)"><g fill="#f4f4ef"><rect x="0" y="0" width="40" height="40" fill-opacity="0.03"/><rect x="40" y="0" width="40" height="40" fill-opacity="0.121"/><rect x="80" y="0" width="40" height="40" fill-opacity="0.087"/><rect x="120" y="0" width="40" height="40" fill-opacity="0.063"/><rect x="320" y="0" width="40" height="40" fill-opacity="0.031"/><rect x="0" y="40" width="40" height="40" fill-opacity="0.094"/><rect x="40" y="40" width="40" height="40" fill-opacity="0.076"/><rect x="120" y="40" width="40" height="40" fill-opacity="0.031"/><rect x="240" y="40" width="40" height="40" fill-opacity="0.098"/><rect x="280" y="40" width="40" height="40" fill-opacity="0.10800000000000001"/><rect x="320" y="40" width="40" height="40" fill-opacity="0.059000000000000004"/><rect x="0" y="80" width="40" height="40" fill-opacity="0.064"/><rect x="120" y="80" width="40" height="40" fill-opacity="0.071"/><rect x="160" y="80" width="40" height="40" fill-opacity="0.06"/><rect x="200" y="80" width="40" height="40" fill-opacity="0.113"/><rect x="280" y="80" width="40" height="40" fill-opacity="0.1"/><rect x="320" y="80" width="40" height="40" fill-opacity="0.091"/><rect x="360" y="80" width="40" height="40" fill-opacity="0.034"/><rect x="40" y="120" width="40" height="40" fill-opacity="0.107"/><rect x="80" y="120" width="40" height="40" fill-opacity="0.132"/><rect x="120" y="120" width="40" height="40" fill-opacity="0.044000000000000004"/><rect x="160" y="120" width="40" height="40" fill-opacity="0.122"/><rect x="200" y="120" width="40" height="40" fill-opacity="0.124"/><rect x="280" y="120" width="40" height="40" fill-opacity="0.09300000000000001"/><rect x="320" y="120" width="40" height="40" fill-opacity="0.095"/><rect x="0" y="160" width="40" height="40" fill-opacity="0.09699999999999999"/><rect x="40" y="160" width="40" height="40" fill-opacity="0.04"/><rect x="80" y="160" width="40" height="40" fill-opacity="0.128"/><rect x="160" y="160" width="40" height="40" fill-opacity="0.122"/><rect x="280" y="160" width="40" height="40" fill-opacity="0.111"/><rect x="360" y="160" width="40" height="40" fill-opacity="0.08800000000000001"/><rect x="0" y="200" width="40" height="40" fill-opacity="0.10099999999999999"/><rect x="40" y="200" width="40" height="40" fill-opacity="0.11"/><rect x="200" y="200" width="40" height="40" fill-opacity="0.124"/><rect x="280" y="200" width="40" height="40" fill-opacity="0.099"/><rect x="320" y="200" width="40" height="40" fill-opacity="0.099"/><rect x="360" y="200" width="40" height="40" fill-opacity="0.031"/><rect x="0" y="240" width="40" height="40" fill-opacity="0.059000000000000004"/><rect x="40" y="240" width="40" height="40" fill-opacity="0.11599999999999999"/><rect x="80" y="240" width="40" height="40" fill-opacity="0.043"/><rect x="160" y="240" width="40" height="40" fill-opacity="0.10099999999999999"/><rect x="280" y="240" width="40" height="40" fill-opacity="0.09300000000000001"/><rect x="0" y="280" width="40" height="40" fill-opacity="0.040999999999999995"/><rect x="40" y="280" width="40" height="40" fill-opacity="0.073"/><rect x="120" y="280" width="40" height="40" fill-opacity="0.08199999999999999"/><rect x="280" y="280" width="40" height="40" fill-opacity="0.039"/><rect x="360" y="280" width="40" height="40" fill-opacity="0.038"/><rect x="40" y="320" width="40" height="40" fill-opacity="0.10800000000000001"/><rect x="80" y="320" width="40" height="40" fill-opacity="0.079"/><rect x="240" y="320" width="40" height="40" fill-opacity="0.138"/><rect x="280" y="320" width="40" height="40" fill-opacity="0.077"/><rect x="320" y="320" width="40" height="40" fill-opacity="0.128"/><rect x="0" y="360" width="40" height="40" fill-opacity="0.07400000000000001"/><rect x="40" y="360" width="40" height="40" fill-opacity="0.121"/><rect x="160" y="360" width="40" height="40" fill-opacity="0.086"/><rect x="240" y="360" width="40" height="40" fill-opacity="0.098"/><rect x="280" y="360" width="40" height="40" fill-opacity="0.078"/><rect x="360" y="360" width="40" height="40" fill-opacity="0.03"/><rect x="40" y="400" width="40" height="40" fill-opacity="0.044000000000000004"/><rect x="80" y="400" width="40" height="40" fill-opacity="0.031"/><rect x="120" y="400" width="40" height="40" fill-opacity="0.08800000000000001"/><rect x="240" y="400" width="40" height="40" fill-opacity="0.113"/><rect x="0" y="440" width="40" height="40" fill-opacity="0.07200000000000001"/><rect x="120" y="440" width="40" height="40" fill-opacity="0.105"/><rect x="160" y="440" width="40" height="40" fill-opacity="0.073"/><rect x="200" y="440" width="40" height="40" fill-opacity="0.076"/><rect x="240" y="440" width="40" height="40" fill-opacity="0.132"/><rect x="360" y="440" width="40" height="40" fill-opacity="0.065"/><rect x="0" y="480" width="40" height="40" fill-opacity="0.03"/><rect x="40" y="480" width="40" height="40" fill-opacity="0.036000000000000004"/><rect x="80" y="480" width="40" height="40" fill-opacity="0.036000000000000004"/><rect x="120" y="480" width="40" height="40" fill-opacity="0.126"/><rect x="160" y="480" width="40" height="40" fill-opacity="0.031"/><rect x="200" y="480" width="40" height="40" fill-opacity="0.068"/><rect x="240" y="480" width="40" height="40" fill-opacity="0.034"/><rect x="360" y="480" width="40" height="40" fill-opacity="0.064"/><rect x="0" y="520" width="40" height="40" fill-opacity="0.131"/><rect x="80" y="520" width="40" height="40" fill-opacity="0.083"/><rect x="160" y="520" width="40" height="40" fill-opacity="0.08199999999999999"/><rect x="320" y="520" width="40" height="40" fill-opacity="0.135"/><rect x="360" y="520" width="40" height="40" fill-opacity="0.132"/><rect x="40" y="560" width="40" height="40" fill-opacity="0.139"/><rect x="200" y="560" width="40" height="40" fill-opacity="0.076"/><rect x="320" y="560" width="40" height="40" fill-opacity="0.12300000000000001"/><rect x="0" y="600" width="40" height="40" fill-opacity="0.13699999999999998"/><rect x="80" y="600" width="40" height="40" fill-opacity="0.039"/><rect x="200" y="600" width="40" height="40" fill-opacity="0.063"/><rect x="240" y="600" width="40" height="40" fill-opacity="0.05"/><rect x="280" y="600" width="40" height="40" fill-opacity="0.128"/><rect x="360" y="600" width="40" height="40" fill-opacity="0.092"/><rect x="0" y="640" width="40" height="40" fill-opacity="0.079"/><rect x="80" y="640" width="40" height="40" fill-opacity="0.055999999999999994"/><rect x="120" y="640" width="40" height="40" fill-opacity="0.065"/><rect x="160" y="640" width="40" height="40" fill-opacity="0.073"/><rect x="200" y="640" width="40" height="40" fill-opacity="0.114"/><rect x="240" y="640" width="40" height="40" fill-opacity="0.106"/><rect x="280" y="640" width="40" height="40" fill-opacity="0.062"/><rect x="320" y="640" width="40" height="40" fill-opacity="0.134"/><rect x="360" y="640" width="40" height="40" fill-opacity="0.126"/><rect x="0" y="680" width="40" height="40" fill-opacity="0.095"/><rect x="80" y="680" width="40" height="40" fill-opacity="0.071"/><rect x="240" y="680" width="40" height="40" fill-opacity="0.077"/><rect x="360" y="680" width="40" height="40" fill-opacity="0.134"/><rect x="0" y="720" width="40" height="40" fill-opacity="0.042"/><rect x="40" y="720" width="40" height="40" fill-opacity="0.09"/><rect x="120" y="720" width="40" height="40" fill-opacity="0.098"/><rect x="160" y="720" width="40" height="40" fill-opacity="0.083"/><rect x="200" y="720" width="40" height="40" fill-opacity="0.054000000000000006"/><rect x="280" y="720" width="40" height="40" fill-opacity="0.051"/><rect x="360" y="720" width="40" height="40" fill-opacity="0.067"/><rect x="0" y="760" width="40" height="40" fill-opacity="0.076"/><rect x="80" y="760" width="40" height="40" fill-opacity="0.065"/><rect x="120" y="760" width="40" height="40" fill-opacity="0.09699999999999999"/><rect x="200" y="760" width="40" height="40" fill-opacity="0.132"/><rect x="240" y="760" width="40" height="40" fill-opacity="0.13699999999999998"/><rect x="280" y="760" width="40" height="40" fill-opacity="0.10400000000000001"/><rect x="320" y="760" width="40" height="40" fill-opacity="0.031"/><rect x="360" y="760" width="40" height="40" fill-opacity="0.096"/><rect x="0" y="800" width="40" height="40" fill-opacity="0.11699999999999999"/><rect x="80" y="800" width="40" height="40" fill-opacity="0.098"/><rect x="160" y="800" width="40" height="40" fill-opacity="0.1"/><rect x="200" y="800" width="40" height="40" fill-opacity="0.07200000000000001"/><rect x="360" y="800" width="40" height="40" fill-opacity="0.11900000000000001"/><rect x="0" y="840" width="40" height="40" fill-opacity="0.042"/><rect x="40" y="840" width="40" height="40" fill-opacity="0.087"/><rect x="240" y="840" width="40" height="40" fill-opacity="0.095"/><rect x="320" y="840" width="40" height="40" fill-opacity="0.111"/><rect x="360" y="840" width="40" height="40" fill-opacity="0.048"/><rect x="0" y="880" width="40" height="40" fill-opacity="0.094"/><rect x="40" y="880" width="40" height="40" fill-opacity="0.033"/><rect x="80" y="880" width="40" height="40" fill-opacity="0.092"/><rect x="160" y="880" width="40" height="40" fill-opacity="0.075"/><rect x="320" y="880" width="40" height="40" fill-opacity="0.032"/><rect x="360" y="880" width="40" height="40" fill-opacity="0.049"/><rect x="0" y="920" width="40" height="40" fill-opacity="0.087"/><rect x="80" y="920" width="40" height="40" fill-opacity="0.057999999999999996"/><rect x="120" y="920" width="40" height="40" fill-opacity="0.10099999999999999"/><rect x="160" y="920" width="40" height="40" fill-opacity="0.133"/><rect x="320" y="920" width="40" height="40" fill-opacity="0.134"/><rect x="120" y="960" width="40" height="40" fill-opacity="0.111"/><rect x="160" y="960" width="40" height="40" fill-opacity="0.075"/><rect x="200" y="960" width="40" height="40" fill-opacity="0.087"/><rect x="280" y="960" width="40" height="40" fill-opacity="0.073"/><rect x="320" y="960" width="40" height="40" fill-opacity="0.085"/></g><g fill="#1a45a8"><rect x="240" y="0" width="40" height="40" fill-opacity="0.061"/><rect x="80" y="40" width="40" height="40" fill-opacity="0.063"/><rect x="160" y="40" width="40" height="40" fill-opacity="0.068"/><rect x="200" y="40" width="40" height="40" fill-opacity="0.068"/><rect x="360" y="40" width="40" height="40" fill-opacity="0.03"/><rect x="240" y="80" width="40" height="40" fill-opacity="0.031"/><rect x="360" y="120" width="40" height="40" fill-opacity="0.042"/><rect x="120" y="160" width="40" height="40" fill-opacity="0.064"/><rect x="200" y="160" width="40" height="40" fill-opacity="0.05"/><rect x="160" y="200" width="40" height="40" fill-opacity="0.035"/><rect x="200" y="240" width="40" height="40" fill-opacity="0.037000000000000005"/><rect x="360" y="240" width="40" height="40" fill-opacity="0.054000000000000006"/><rect x="160" y="280" width="40" height="40" fill-opacity="0.033"/><rect x="0" y="320" width="40" height="40" fill-opacity="0.075"/><rect x="200" y="320" width="40" height="40" fill-opacity="0.063"/><rect x="0" y="400" width="40" height="40" fill-opacity="0.055999999999999994"/><rect x="200" y="400" width="40" height="40" fill-opacity="0.031"/><rect x="280" y="400" width="40" height="40" fill-opacity="0.071"/><rect x="280" y="440" width="40" height="40" fill-opacity="0.039"/><rect x="320" y="480" width="40" height="40" fill-opacity="0.057"/><rect x="280" y="520" width="40" height="40" fill-opacity="0.048"/><rect x="0" y="560" width="40" height="40" fill-opacity="0.039"/><rect x="160" y="560" width="40" height="40" fill-opacity="0.08"/><rect x="360" y="560" width="40" height="40" fill-opacity="0.07"/><rect x="120" y="600" width="40" height="40" fill-opacity="0.07"/><rect x="160" y="600" width="40" height="40" fill-opacity="0.078"/><rect x="40" y="680" width="40" height="40" fill-opacity="0.043"/><rect x="120" y="680" width="40" height="40" fill-opacity="0.064"/><rect x="80" y="720" width="40" height="40" fill-opacity="0.042"/><rect x="40" y="760" width="40" height="40" fill-opacity="0.036000000000000004"/><rect x="80" y="840" width="40" height="40" fill-opacity="0.079"/><rect x="200" y="840" width="40" height="40" fill-opacity="0.055999999999999994"/><rect x="280" y="840" width="40" height="40" fill-opacity="0.073"/><rect x="120" y="880" width="40" height="40" fill-opacity="0.077"/><rect x="200" y="880" width="40" height="40" fill-opacity="0.053"/><rect x="40" y="920" width="40" height="40" fill-opacity="0.059000000000000004"/><rect x="40" y="960" width="40" height="40" fill-opacity="0.039"/><rect x="80" y="960" width="40" height="40" fill-opacity="0.045"/><rect x="360" y="960" width="40" height="40" fill-opacity="0.067"/></g>
<path d="M40 0V1000M80 0V1000M120 0V1000M160 0V1000M200 0V1000M240 0V1000M280 0V1000M320 0V1000M360 0V1000M0 40H400M0 80H400M0 120H400M0 160H400M0 200H400M0 240H400M0 280H400M0 320H400M0 360H400M0 400H400M0 440H400M0 480H400M0 520H400M0 560H400M0 600H400M0 640H400M0 680H400M0 720H400M0 760H400M0 800H400M0 840H400M0 880H400M0 920H400M0 960H400" stroke="#d6d3c8" stroke-width="1.3" fill="none"/></g></svg>